<svg width="80" height="58" viewBox="0 0 80 58" fill="none" xmlns="http://www.w3.org/2000/svg">
<path d="M18.667 41.334C14.2549 41.334 10.6669 44.922 10.6669 49.3341C10.6669 53.7462 14.2549 57.3342 18.667 57.3342C23.0791 57.3342 26.6671 53.7462 26.6671 49.3341C26.6671 44.922 23.0789 41.334 18.667 41.334ZM18.667 54.6675C15.7255 54.6675 13.3336 52.2754 13.3336 49.3341C13.3336 46.3927 15.7257 44.0007 18.667 44.0007C21.6083 44.0007 24.0004 46.3928 24.0004 49.3341C24.0004 52.2754 21.6083 54.6675 18.667 54.6675Z" fill="white"/>
<path d="M64.001 41.334C59.5889 41.334 56.0008 44.922 56.0008 49.3341C56.0008 53.7462 59.5889 57.3342 64.001 57.3342C68.4131 57.3342 72.0011 53.7462 72.0011 49.3341C72.0011 44.922 68.4131 41.334 64.001 41.334ZM64.001 54.6675C61.0595 54.6675 58.6676 52.2754 58.6676 49.3341C58.6676 46.3927 61.0597 44.0007 64.001 44.0007C66.9424 44.0007 69.3343 46.3928 69.3343 49.3341C69.3343 52.2754 66.9424 54.6675 64.001 54.6675Z" fill="white"/>
<path d="M79.7892 33.946L67.789 15.279C67.5437 14.8976 67.121 14.6669 66.6676 14.6669H52.0008C51.2634 14.6669 50.6675 15.2643 50.6675 16.0002V49.334C50.6675 50.0714 51.2634 50.6673 52.0008 50.6673H57.3341V48.0006H53.3341V17.3337H65.9396L77.3344 35.0593V48.0009H70.6676V50.6675H78.6677C79.4051 50.6675 80.001 50.0715 80.001 49.3342V34.6672C80.0012 34.4125 79.9279 34.1605 79.7892 33.946Z" fill="white"/>
<path d="M58.6676 32.0005V22.6671H69.3345V20.0003H57.3343C56.5969 20.0003 56.001 20.5977 56.001 21.3336V33.3338C56.001 34.0711 56.5969 34.6671 57.3343 34.6671H77.3346V32.0003H58.6676V32.0005Z" fill="white"/>
<path d="M52.0008 5.3335H1.3333C0.597353 5.3335 0 5.93085 0 6.6668V49.3342C0 50.0715 0.597353 50.6675 1.3333 50.6675H12.0002V48.0007H2.66676V8.0001H50.6675V48.0007H25.3337V50.6675H52.0008C52.7381 50.6675 53.3341 50.0715 53.3341 49.3342V6.6668C53.3341 5.93085 52.7381 5.3335 52.0008 5.3335Z" fill="white"/>
<path d="M9.33342 42.6674H1.3333V45.3341H9.33342V42.6674Z" fill="white"/>
<path d="M50.6675 42.6674H28.0004V45.3341H50.6675V42.6674Z" fill="white"/>
<path d="M78.6677 42.6674H73.3344V45.3341H78.6677V42.6674Z" fill="white"/>
<path d="M52.0008 10.6669H5.33337V13.3336H52.0008V10.6669Z" fill="white"/>
<path d="M20.0003 48.0007H17.3335V50.6675H20.0003V48.0007Z" fill="white"/>
<path d="M65.3344 48.0007H62.6677V50.6675H65.3344V48.0007Z" fill="white"/>
<path d="M24.0004 0H5.33337V2.66676H24.0004V0Z" fill="white"/>
<path d="M2.66676 0H0V2.66676H2.66676V0Z" fill="white"/>
</svg>
