<svg width="56" height="67" viewBox="0 0 56 67" fill="none" xmlns="http://www.w3.org/2000/svg">
<path fill-rule="evenodd" clip-rule="evenodd" d="M-0.000344369 3.86732V62.9858C-0.000344369 65.0436 2.1176 67.0012 4.12139 67.0012H51.8777C53.9654 67.0012 55.9994 64.9472 55.9994 62.837V4.16531C55.9994 3.94872 55.9778 3.73261 55.9366 3.52039C55.5366 1.45866 53.4608 0.00115967 51.435 0.00115967H4.56311C3.28016 0.00115967 2.20968 0.393154 1.29891 1.31427C0.697482 1.92188 -0.000823975 2.97673 -0.000823975 3.8678L-0.000344369 3.86732ZM2.20009 59.4118V7.4413C2.20009 4.85675 3.4039 2.075 6.33237 2.075H49.6667C51.7002 2.075 53.6517 4.04611 53.6517 6.10106V61.1988C53.6517 62.2153 53.0532 63.1825 52.3213 63.8395C51.4278 64.6419 50.2719 65.0756 49.0772 65.0756H6.92229C3.45617 65.0756 2.20057 62.5676 2.20057 59.4118H2.20009ZM8.69587 39.4521H26.2255V36.7822H8.69587V39.4521ZM34.6809 48.8938L37.7686 52.4673L37.7734 52.4727C38.2425 53.0333 38.7326 53.827 39.5628 53.685C40.3355 53.5532 40.9848 52.5415 41.4371 51.976C42.0793 51.1726 42.7565 50.3998 43.4203 49.6308L48.4187 43.6739C48.8178 43.1767 49.0859 42.5483 48.7784 41.9339C48.6322 41.6422 48.2456 41.2497 47.8984 41.2497C47.5598 41.2497 47.1368 41.2647 46.8284 41.4256C46.5531 41.5695 46.3003 41.8573 46.1027 42.0918C45.6476 42.6316 45.2217 43.2121 44.7804 43.7659L44.7723 43.7761L41.9738 47.0855L41.9676 47.0923C41.652 47.4504 41.3498 47.8206 41.0506 48.1932C40.9177 48.3589 39.628 50.0543 39.582 50.2297C38.9317 49.5087 38.2549 48.9937 37.6506 48.2063C37.1082 47.4988 36.6435 46.7599 35.6641 46.7599C35.4142 46.7599 35.1749 46.8452 34.9696 46.9872C34.3164 47.4397 34.1639 48.2562 34.6809 48.8948V48.8938ZM42.8179 40.017C42.7162 39.9846 42.6179 39.9531 42.5249 39.9255C41.7987 39.7084 41.0774 39.5427 40.3216 39.4714C37.9643 39.249 35.8075 39.9986 33.8541 41.3064C32.1548 42.4436 31.2244 43.747 30.3136 45.5679C29.8714 46.4522 29.587 47.4048 29.4556 48.3856C29.1223 50.878 29.7803 53.4737 31.1395 55.5674C32.5706 57.7721 34.7222 59.3541 37.2866 59.9123C39.5705 60.4095 41.6093 60.2941 43.7642 59.374C47.3348 57.8491 49.9559 53.9602 49.9559 50.0301C49.9559 49.5688 49.9261 49.1158 49.8528 48.6603C49.8259 48.4951 49.7938 48.3313 49.7597 48.1675C49.6542 48.2644 49.5511 48.3642 49.4489 48.4679C49.0159 48.9069 48.5492 49.3173 48.1329 49.7713C48.0979 49.8096 48.0734 49.8435 48.059 49.8934C48.0288 49.9986 48.0293 50.1556 48.0283 50.2646C48.0259 50.5447 48.0288 50.818 48.0087 51.098C47.9372 52.0812 47.6207 52.9683 47.1617 53.8333C43.9176 59.9433 35.2147 59.8992 32.1136 53.6637C31.2815 51.9905 31.0057 50.1372 31.3553 48.2954C31.6776 46.5952 32.5145 45.0224 33.7164 43.7916C35.2871 42.1834 37.3984 41.239 39.6434 41.239C40.2894 41.239 40.9753 41.4043 41.629 41.5676C41.8755 41.2376 42.1378 40.912 42.3829 40.5927C42.5287 40.4022 42.675 40.2108 42.8179 40.0175V40.017ZM8.69587 20.9867H47.3032V18.3168H8.69587V20.9867ZM8.69587 11.7542H47.3032V9.08438H8.69587V11.7542ZM8.69587 30.2196H47.3032V27.5498H8.69587V30.2196Z" fill="white"/>
</svg>
