<svg width="67" height="68" viewBox="0 0 67 68" fill="none" xmlns="http://www.w3.org/2000/svg">
<path d="M39.2081 18.5736C36.271 18.5736 33.8814 16.1842 33.8814 13.2471C33.8814 10.31 36.271 7.92035 39.2081 7.92035C42.1452 7.92035 44.5347 10.31 44.5347 13.2471C44.5347 16.1842 42.1452 18.5736 39.2081 18.5736ZM39.2081 9.89784C37.3613 9.89784 35.8589 11.4002 35.8589 13.2471C35.8589 15.0938 37.3613 16.5961 39.2081 16.5961C41.0548 16.5961 42.5572 15.0938 42.5572 13.2471C42.5572 11.4003 41.0548 9.89784 39.2081 9.89784Z" fill="white"/>
<path d="M41.1676 58.0934C37.8064 58.0934 35.0718 55.3588 35.0718 51.9975C35.0718 48.6363 37.8064 45.9017 41.1676 45.9017C44.5289 45.9017 47.2635 48.6363 47.2635 51.9975C47.2635 55.3588 44.5289 58.0934 41.1676 58.0934ZM41.1676 47.8792C38.8967 47.8792 37.0493 49.7267 37.0493 51.9975C37.0493 54.2684 38.8968 56.1159 41.1676 56.1159C43.4385 56.1159 45.286 54.2684 45.286 51.9975C45.286 49.7267 43.4386 47.8792 41.1676 47.8792Z" fill="white"/>
<path d="M49.8978 17.8355C53.4614 17.8355 56.3605 20.7346 56.3605 24.2982C56.3605 27.8618 53.4614 30.7609 49.8978 30.7609C46.3342 30.7609 43.4351 27.8618 43.4351 24.2982C43.4351 20.7346 46.3342 17.8355 49.8978 17.8355ZM49.8978 28.7836C52.371 28.7836 54.383 26.7715 54.383 24.2983C54.383 21.8252 52.3708 19.8131 49.8978 19.8131C47.4247 19.8131 45.4126 21.8252 45.4126 24.2983C45.4126 26.7715 47.4246 28.7836 49.8978 28.7836Z" fill="white"/>
<path d="M51.7487 46.4553C48.1851 46.4553 45.286 43.5561 45.286 39.9926C45.286 36.429 48.1851 33.5298 51.7487 33.5298C55.3123 33.5298 58.2114 36.429 58.2114 39.9926C58.2114 43.5561 55.3123 46.4553 51.7487 46.4553ZM51.7487 35.5072C49.2755 35.5072 47.2635 37.5192 47.2635 39.9924C47.2635 42.4656 49.2757 44.4776 51.7487 44.4776C54.2218 44.4776 56.2339 42.4656 56.2339 39.9924C56.2339 37.5192 54.2219 35.5072 51.7487 35.5072Z" fill="white"/>
<path d="M45.3072 65.1395C44.7708 65.2383 44.2552 64.8817 44.157 64.3445C44.0588 63.8072 44.4148 63.2923 44.952 63.1942C48.7418 62.5022 52.132 60.6222 54.7561 57.7572C62.3996 49.4124 65.8027 40.412 64.871 31.0058C62.7687 9.77786 40.3832 -0.788186 19.7386 3.34092C16.9495 3.8987 15.8632 6.172 15.7808 7.94909C15.6992 9.70325 16.5581 12.0365 19.2472 12.8399C22.7217 13.8778 25.4688 15.3927 27.4122 17.3424C31.8666 21.8111 32.2524 29.3509 27.9991 34.4297C25.8989 36.9376 24.5554 39.9787 24.1043 43.2397C26.3433 48.3288 28.633 54.0919 30.4049 59.4262C33.2518 61.7778 36.8539 63.2028 40.58 63.4462C41.125 63.4818 41.5379 63.9523 41.5023 64.4973C41.468 65.0202 41.0332 65.4217 40.5164 65.4217C40.4948 65.4217 40.4731 65.421 40.451 65.4194C37.2427 65.2099 34.116 64.21 31.3976 62.5529C31.9727 64.5562 31.0339 66.6548 29.1458 67.5621C27.1296 68.531 24.6887 67.7633 23.5884 65.8165C21.6845 62.4478 19.6215 58.3592 17.6228 53.9926C17.3954 53.4962 17.6138 52.9094 18.1102 52.6821C18.6069 52.4547 19.1934 52.6733 19.4207 53.1696C21.3965 57.4862 23.433 61.5229 25.3099 64.8436C25.9001 65.8878 27.2085 66.2987 28.2893 65.7798C29.3119 65.2884 29.8159 64.1462 29.4877 63.064C26.9353 54.6444 22.6785 44.3958 18.7791 36.4711L13.4647 38.746C14.7038 42.1228 16.1153 45.6387 17.5556 48.9724C17.7719 49.4737 17.5408 50.0555 17.0394 50.2718C16.5373 50.4884 15.9562 50.2571 15.7398 49.7557C13.027 43.4602 9.99923 35.5968 8.23229 28.9815C7.60424 28.756 7.15035 28.3017 6.90976 27.7395L6.05404 25.7404C5.87066 25.3121 5.83018 24.8582 5.91021 24.4314C4.26442 23.3808 1.96079 21.5068 0.767059 18.718C-0.707748 15.2733 0.272293 9.43721 0.98774 6.26507C1.12472 5.65733 1.54868 5.14793 2.1215 4.90273C2.69444 4.65752 3.35544 4.70221 3.88988 5.02269C6.67892 6.69498 11.5782 10.0145 13.0527 13.459C14.2461 16.2466 14.0123 19.2061 13.6367 21.1221C14.0109 21.3648 14.3049 21.7125 14.4843 22.1317L15.34 24.1308C15.5826 24.6973 15.5943 25.3372 15.3258 25.9449C17.9789 30.2926 20.6129 35.5693 22.7376 40.199C23.4839 37.6227 24.7508 35.2288 26.4829 33.1603C28.1415 31.1798 28.9825 28.8585 28.9825 26.2608C28.9825 20.6548 25.5166 16.7769 18.6811 14.7349C15.5682 13.8049 13.6544 11.1054 13.8053 7.8576C13.9302 5.1714 15.6933 2.1336 19.3507 1.40207C41.1138 -2.95075 64.6149 8.35936 66.839 30.811C67.8284 40.8004 64.2538 50.3159 56.2143 59.0929C53.2965 62.2785 49.5249 64.3695 45.3072 65.1395ZM13.8092 27.2565C12.5134 27.8111 11.5241 28.2347 10.2284 28.7893C10.8747 31.1666 11.7504 33.9293 12.7935 36.8822L17.8941 34.6988C16.4772 31.9052 15.0828 29.3646 13.8092 27.2565ZM7.87199 24.9621L8.72771 26.9612C8.79692 27.1226 8.97767 27.1737 9.11332 27.1156L13.3679 25.2943C13.5058 25.2353 13.5906 25.0684 13.5223 24.9088L12.6666 22.9096C12.5999 22.7542 12.4235 22.6941 12.2807 22.7554L8.02637 24.5765C7.88927 24.6353 7.80489 24.8054 7.87199 24.9621ZM11.235 14.2371C10.8021 13.2257 9.124 10.4727 2.90813 6.73941C1.31812 13.8144 2.15221 16.9282 2.58514 17.9397C3.60605 20.3248 5.65973 21.9441 7.08641 22.8358C7.13927 22.808 7.19346 22.7821 7.24843 22.7587L11.5029 20.9374H11.503C11.558 20.914 11.6139 20.8926 11.6706 20.8736C12.0099 19.2256 12.2558 16.6219 11.235 14.2371Z" fill="white"/>
</svg>
