<svg width="68" height="68" viewBox="0 0 68 68" fill="none" xmlns="http://www.w3.org/2000/svg">
<path d="M11.0013 31.2873C10.677 30.963 10.19 30.8645 9.76615 31.0416C9.34225 31.2165 9.06667 31.6304 9.06667 32.0886V57.8C9.06667 58.4264 9.57357 58.9333 10.2 58.9333H35.9114C36.3696 58.9333 36.7835 58.6577 36.9584 58.2338C37.1344 57.81 37.037 57.323 36.7127 56.9987L11.0013 31.2873ZM11.3333 34.8245L18.1333 41.6245V56.6667H11.3333V34.8245ZM20.4 56.6667V43.8912L33.1755 56.6667H20.4Z" fill="white"/>
<path d="M59.7346 0.332033C59.5221 0.119533 59.2344 0 58.9333 0H19.2667C18.6402 0 18.1333 0.506906 18.1333 1.13333V25.5974L1.93463 9.3987C1.61035 9.07442 1.12337 8.97702 0.699482 9.15299C0.275581 9.32787 0 9.74179 0 10.2V66.8667C0 67.4931 0.506906 68 1.13333 68H57.8C58.2582 68 58.6721 67.7244 58.847 67.3005C59.023 66.8766 58.9256 66.3896 58.6013 66.0654L51.4693 58.9333H55.5333H66.8667C67.4931 58.9333 68 58.4264 68 57.8V18.1333V9.06667C68 8.76563 67.8805 8.47787 67.668 8.26537L59.7346 0.332033ZM2.26667 65.7333V12.9359L7.46407 18.1333L5.9987 19.5987L7.6013 21.2013L9.06667 19.7359L10.8641 21.5333L9.3987 22.9987L11.0013 24.6013L12.4667 23.1359L14.2641 24.9333L12.7987 26.3987L14.4013 28.0013L15.8667 26.5359L17.6641 28.3333L16.1987 29.7987L17.8013 31.4013L19.2667 29.9359L21.0641 31.7333L19.5987 33.1987L21.2013 34.8013L22.6667 33.3359L24.4641 35.1333L22.9987 36.5987L24.6013 38.2013L26.0667 36.7359L27.8641 38.5333L26.3987 39.9987L28.0013 41.6013L29.4667 40.1359L31.2641 41.9333L29.7987 43.3987L31.4013 45.0013L32.8667 43.5359L34.6641 45.3333L33.1987 46.7987L34.8013 48.4013L36.2667 46.9359L38.0641 48.7333L36.5987 50.1987L38.2013 51.8013L39.6667 50.3359L41.4641 52.1333L39.9987 53.5987L41.6013 55.2013L43.0667 53.7359L44.8641 55.5333L43.3987 56.9987L45.0013 58.6013L46.4667 57.1359L48.2641 58.9333L46.7987 60.3987L48.4013 62.0013L49.8667 60.5359L55.0641 65.7333H2.26667ZM26.0667 14.7333H30.6V38.0641L26.0667 33.5307V14.7333ZM26.7672 12.4667L28.3333 9.33451L29.8994 12.4667H26.7672ZM40.8188 35.2617L42.7501 29.4667H45.6499L47.5812 35.2617L45.7807 53.2448L42.2618 49.7258L40.8188 35.2617ZM45.3333 22.6667V17.5518L48.5374 22.6788L45.825 27.2H42.5751L39.8626 22.6788L43.0667 17.5518V22.6667H45.3333ZM47.8516 55.3156L49.8611 35.2462C49.8766 35.0869 49.8589 34.9264 49.808 34.7747L47.7064 28.4699L50.8384 23.2499C51.0575 22.8847 51.0531 22.4276 50.8273 22.0657L45.1607 12.999C44.7467 12.3372 43.6532 12.3372 43.2393 12.999L37.5726 22.0657C37.3469 22.4276 37.3424 22.8847 37.5616 23.2499L40.6936 28.4699L38.592 34.7747C38.5411 34.9264 38.5233 35.0868 38.5388 35.2462L39.7311 47.1952L32.8667 40.3307V13.6C32.8667 13.424 32.8257 13.2503 32.7471 13.0931L29.3471 6.29309C28.962 5.525 27.7047 5.525 27.3195 6.29309L23.9195 13.0931C23.8409 13.2503 23.8 13.424 23.8 13.6V31.2641L20.4 27.8641V2.26667H58.4641L64.1307 7.93333H60.0667V5.66667H57.8V9.06667C57.8 9.69309 58.3069 10.2 58.9333 10.2H65.7333V17H55.5333C54.9069 17 54.4 17.5069 54.4 18.1333V56.6667H49.2026L47.8516 55.3156ZM56.6667 56.6667V19.2667H65.7333V22.6667H63.4667V24.9333H65.7333V28.3333H63.4667V30.6H65.7333V34H63.4667V36.2667H65.7333V39.6667H63.4667V41.9333H65.7333V45.3333H63.4667V47.6H65.7333V51H63.4667V53.2667H65.7333V56.6667H56.6667Z" fill="white"/>
<path d="M4.53334 61.2H6.80001V63.4666H4.53334V61.2Z" fill="white"/>
<path d="M9.06667 61.2H11.3333V63.4666H9.06667V61.2Z" fill="white"/>
<path d="M13.6 61.2H15.8667V63.4666H13.6V61.2Z" fill="white"/>
</svg>
